PathFileType	4	(X/Y/Z) flx_2kg_3.trc																										
DataRate	CameraRate	NumFrames	NumMarkers	Units	OrigDataRate	OrigDataStartFrame	OrigNumFrames																					
100	100	29	9	mm	100	194	774																					
Frame#	Time	gu			centelbow			EpL			centpxt8			centijc7			ij			ts			aa			ai		
		X1	Y1	Z1	X2	Y2	Z2	X3	Y3	Z3	X4	Y4	Z4	X5	Y5	Z5	X6	Y6	Z6	X7	Y7	Z7	X8	Y8	Z8	X9	Y9	Z9  
193	1.93	-65.728	20.918	147.622	112.394	-126.1	235.043	118.971	-100.471	253.463	-46.816	-153.158	-8.669	-46.816	31.938	-8.669	0	0	0	-152.331	14.017	53.822	-103.092	46.848	157.372	-145.945	-93.13	90.761
194	1.94	-65.429	22.771	146.783	115.24	-120.581	235.061	121.579	-94.613	253.086	-46.816	-153.158	-8.669	-46.816	31.938	-8.669	0	0	0	-152.471	14.147	53.262	-102.861	47.882	156.343	-145.496	-92.716	90.909
195	1.95	-65.259	24.701	146.588	117.548	-115.095	236.158	123.654	-88.78	253.756	-46.816	-153.158	-8.669	-46.816	31.938	-8.669	0	0	0	-152.549	14.116	53.177	-102.699	48.668	155.871	-145.134	-92.478	91.497
196	1.96	-65.634	26.106	147.186	118.794	-110.437	238.436	124.689	-83.786	255.595	-46.816	-153.158	-8.669	-46.816	31.938	-8.669	0	0	0	-152.94	13.641	53.746	-102.955	48.876	156.141	-145.316	-92.711	92.691
197	1.97	-66.357	26.54	148.16	119.354	-107.046	241.168	125.072	-80.076	257.883	-46.816	-153.158	-8.669	-46.816	31.938	-8.669	0	0	0	-153.63	13.003	54.507	-103.498	48.798	156.636	-145.902	-93.138	94.001
198	1.98	-66.866	26.37	148.625	120.233	-104.26	243.039	125.788	-76.99	259.316	-46.816	-153.158	-8.669	-46.816	31.938	-8.669	0	0	0	-154.2	12.771	54.722	-103.813	49.119	156.53	-146.243	-93.168	94.713
199	1.99	-67.062	26.501	148.019	121.895	-100.792	243.287	127.249	-73.234	259.14	-46.816	-153.158	-8.669	-46.816	31.938	-8.669	0	0	0	-154.512	13.026	54.216	-103.759	50.03	155.604	-146.107	-92.683	94.72
200	2	-67.274	27.326	146.632	123.949	-96.161	242.387	129.033	-68.323	257.835	-46.816	-153.158	-8.669	-46.816	31.938	-8.669	0	0	0	-154.757	13.344	53.564	-103.607	51.13	154.464	-145.78	-92.09	94.658
201	2.01	-67.541	28.438	145.269	125.945	-91.054	241.543	130.702	-62.955	256.617	-46.816	-153.158	-8.669	-46.816	31.938	-8.669	0	0	0	-155.04	13.291	53.499	-103.561	51.95	153.899	-145.515	-91.824	95.281
202	2.02	-67.648	29.323	144.55	127.724	-86.295	241.745	132.114	-57.958	256.481	-46.816	-153.158	-8.669	-46.816	31.938	-8.669	0	0	0	-155.298	12.77	54.201	-103.596	52.337	154.131	-145.355	-91.994	96.758
203	2.03	-67.639	29.955	144.485	129.169	-81.958	243.107	133.164	-53.405	257.537	-46.816	-153.158	-8.669	-46.816	31.938	-8.669	0	0	0	-155.466	12.168	55.099	-103.579	52.636	154.572	-145.209	-92.232	98.471
204	2.04	-67.781	30.729	144.602	130.249	-77.49	244.889	133.821	-48.737	259.029	-46.816	-153.158	-8.669	-46.816	31.938	-8.669	0	0	0	-155.582	11.882	55.533	-103.451	53.241	154.51	-145.01	-92.146	99.715
205	2.05	-68.147	31.808	144.414	131.191	-72.608	246.131	134.329	-43.67	259.993	-46.816	-153.158	-8.669	-46.816	31.938	-8.669	0	0	0	-155.753	11.736	55.471	-103.307	53.989	153.903	-144.813	-91.912	100.449
206	2.06	-68.563	32.925	143.696	132.332	-67.568	246.296	135.04	-38.461	259.892	-46.816	-153.158	-8.669	-46.816	31.938	-8.669	0	0	0	-156.041	11.316	55.293	-103.268	54.499	153.145	-144.666	-91.932	101.075
207	2.07	-68.885	34.021	142.523	133.799	-62.366	245.544	136.07	-33.102	258.882	-46.816	-153.158	-8.669	-46.816	31.938	-8.669	0	0	0	-156.38	10.576	55.267	-103.315	54.771	152.508	-144.473	-92.236	101.889
208	2.08	-69.124	35.249	141.287	135.387	-56.785	244.677	137.198	-27.367	257.744	-46.816	-153.158	-8.669	-46.816	31.938	-8.669	0	0	0	-156.605	9.904	55.404	-103.308	55.21	152.003	-144.064	-92.425	102.913
209	2.09	-69.306	36.348	140.569	136.767	-51.231	244.723	138.098	-21.657	257.491	-46.816	-153.158	-8.669	-46.816	31.938	-8.669	0	0	0	-156.632	9.761	55.54	-103.155	56.224	151.489	-143.394	-92.059	103.946
210	2.1	-69.431	36.974	140.676	137.757	-46.28	246.156	138.606	-16.552	258.604	-46.816	-153.158	-8.669	-46.816	31.938	-8.669	0	0	0	-156.566	10.076	55.667	-102.935	57.64	150.988	-142.664	-91.245	104.925
211	2.11	-69.533	37.202	141.366	138.415	-41.954	248.493	138.785	-12.09	260.636	-46.816	-153.158	-8.669	-46.816	31.938	-8.669	0	0	0	-156.574	10.233	56.01	-102.797	58.77	150.758	-142.16	-90.628	106.058
212	2.12	-69.61	37.332	142.08	139.025	-37.856	250.72	138.921	-7.88	262.588	-46.816	-153.158	-8.669	-46.816	31.938	-8.669	0	0	0	-156.719	9.888	56.505	-102.789	59.304	150.709	-141.919	-90.538	107.312
213	2.13	-69.62	37.802	142.159	139.961	-33.21	251.785	139.376	-3.136	263.389	-46.816	-153.158	-8.669	-46.816	31.938	-8.669	0	0	0	-156.984	9.226	56.747	-102.869	59.551	150.362	-141.764	-90.741	108.328
214	2.14	-69.681	38.993	141.194	141.255	-27.3	251.175	140.158	2.866	262.496	-46.816	-153.158	-8.669	-46.816	31.938	-8.669	0	0	0	-157.366	8.483	56.621	-103.042	59.811	149.569	-141.583	-90.976	109.008
215	2.15	-70.053	40.825	139.545	142.422	-20.245	249.586	140.775	10.012	260.597	-46.816	-153.158	-8.669	-46.816	31.938	-8.669	0	0	0	-157.814	7.897	56.35	-103.308	60.293	148.592	-141.349	-91.02	109.549
216	2.16	-70.778	42.725	138.155	142.989	-13.034	248.514	140.781	17.308	259.186	-46.816	-153.158	-8.669	-46.816	31.938	-8.669	0	0	0	-158.183	7.711	56.121	-103.548	61.181	147.667	-141.019	-90.652	110.119
217	2.17	-71.521	43.935	137.637	143.054	-6.912	248.797	140.323	23.511	259.112	-46.816	-153.158	-8.669	-46.816	31.938	-8.669	0	0	0	-158.333	7.696	56.14	-103.59	62.18	147.022	-140.607	-90.12	110.943
218	2.18	-72.023	44.198	137.666	143.027	-2.302	249.806	139.839	28.192	259.773	-46.816	-153.158	-8.669	-46.816	31.938	-8.669	0	0	0	-158.245	7.286	56.6	-103.389	62.681	146.861	-140.202	-90.004	112.231
219	2.19	-72.525	44.141	137.407	143.003	1.752	250.256	139.386	32.301	259.902	-46.816	-153.158	-8.669	-46.816	31.938	-8.669	0	0	0	-158.109	6.395	57.319	-103.148	62.636	146.99	-139.901	-90.38	113.788
220	2.2	-73.31	44.676	136.418	142.901	6.728	249.541	138.818	37.312	258.889	-46.816	-153.158	-8.669	-46.816	31.938	-8.669	0	0	0	-158.208	5.503	57.801	-103.177	62.618	146.875	-139.769	-90.739	115.099
221	2.21	-74.184	46.103	134.913	142.855	13.229	248.041	138.233	43.827	257.083	-46.816	-153.158	-8.669	-46.816	31.938	-8.669	0	0	0	-158.608	5.027	57.754	-103.553	63.109	146.187	-139.723	-90.642	115.861
